<?xml version="1.0" encoding="utf-8"?>
<!-- Generator: Adobe Illustrator 20.1.0, SVG Export Plug-In . SVG Version: 6.00 Build 0)  -->
<svg version="1.1" xmlns="http://www.w3.org/2000/svg" xmlns:xlink="http://www.w3.org/1999/xlink" x="0px" y="0px"
	 viewBox="0 0 1000 1000" style="enable-background:new 0 0 1000 1000;" xml:space="preserve">
<g id="Layer_2">
	<rect x="-28.1" y="-29.9" style="fill:#FFFFFF;" width="1056.2" height="1059.8"/>
</g>
<g id="Layer_3">
	<g>
		<path style="fill:#33343A;" d="M455.4,506.2c0-12.2-10-22.2-22.2-22.2c-12.2,0-22.2,10-22.2,22.2s10,22.2,22.2,22.2
			C445.4,528.4,455.4,518.4,455.4,506.2z"/>
		<path style="fill:#33343A;" d="M573.6,506.5c-11,0-20.2,8.1-21.9,18.7h-39.5c-1.5-6.9-7.2-12.2-14.3-13L476,479.9l44.2-25
			c2.8,3.2,7,5.3,11.6,5.3c8.5,0,15.4-6.9,15.4-15.4s-6.9-15.4-15.4-15.4s-15.4,6.9-15.4,15.4c0,1.4,0.2,2.7,0.5,4L472.1,474
			l-31.1-45.9c2.6-3,4.2-6.9,4.2-11.2c0-9.5-7.7-17.1-17.1-17.1S411,407.5,411,417s7.7,17.1,17.1,17.1c2.6,0,5.1-0.6,7.3-1.7
			l54.7,80.7c-6.3,2.4-10.8,8.4-10.8,15.5c0,1.6,0.2,3.1,0.6,4.5l-55,37.2c-1.7-0.6-3.5-1-5.5-1c-8.5,0-15.4,6.9-15.4,15.4
			s6.9,15.4,15.4,15.4c7.6,0,13.9-5.5,15.1-12.7l130.6-38.2c2.6,1,5.4,1.6,8.3,1.6c12.2,0,22.2-10,22.2-22.2
			C595.8,516.5,585.9,506.5,573.6,506.5z M418,417c0-5.6,4.5-10.1,10.1-10.1s10.1,4.5,10.1,10.1s-4.5,10.1-10.1,10.1
			S418,422.6,418,417z M496,519.1c5.3,0,9.6,4.3,9.6,9.6s-4.3,9.6-9.6,9.6s-9.6-4.3-9.6-9.6S490.7,519.1,496,519.1z M496,545.3
			c8,0,14.6-5.6,16.3-13.1h39.5c0.7,4.6,2.9,8.8,6,12l-123.5,36.1c-0.6-2.1-1.7-4-3.1-5.6l52.1-35.3
			C486.4,543,490.9,545.3,496,545.3z M419.6,593.2c-4.6,0-8.4-3.8-8.4-8.4c0-4.6,3.8-8.4,8.4-8.4c4.6,0,8.4,3.8,8.4,8.4
			C428,589.4,424.2,593.2,419.6,593.2z M573.6,543.9c-8.4,0-15.2-6.8-15.2-15.2s6.8-15.2,15.2-15.2s15.2,6.8,15.2,15.2
			S582,543.9,573.6,543.9z"/>
		<path style="fill:#33343A;" d="M484.9,428.1c6.1,0,11.1-5,11.1-11.1c0-6.1-5-11.1-11.1-11.1s-11.1,5-11.1,11.1
			C473.8,423.1,478.8,428.1,484.9,428.1z M484.9,412.9c2.3,0,4.1,1.8,4.1,4.1c0,2.3-1.8,4.1-4.1,4.1s-4.1-1.8-4.1-4.1
			C480.8,414.7,482.6,412.9,484.9,412.9z"/>
	</g>
	<g>
		<g>
			<path style="fill:#33343A;" d="M196.1,392.3h-11.7c-1.9,0-3.5,1.6-3.5,3.5s1.6,3.5,3.5,3.5h8.2v24.5c0,1.9,1.6,3.5,3.5,3.5
				s3.5-1.6,3.5-3.5v-28C199.6,393.9,198,392.3,196.1,392.3z"/>
			<path style="fill:#33343A;" d="M170.3,392.3h-11.7c-1.9,0-3.5,1.6-3.5,3.5v28c0,1.9,1.6,3.5,3.5,3.5h11.7c1.9,0,3.5-1.6,3.5-3.5
				v-28C173.8,393.9,172.2,392.3,170.3,392.3z M166.8,399.3v21h-4.7v-21H166.8z"/>
			<path style="fill:#33343A;" d="M250.1,392.3h-11.7c-1.9,0-3.5,1.6-3.5,3.5s1.6,3.5,3.5,3.5h8.2v24.5c0,1.9,1.6,3.5,3.5,3.5
				s3.5-1.6,3.5-3.5v-28C253.6,393.9,252.1,392.3,250.1,392.3z"/>
			<path style="fill:#33343A;" d="M224.4,392.3h-11.7c-1.9,0-3.5,1.6-3.5,3.5v28c0,1.9,1.6,3.5,3.5,3.5h11.7c1.9,0,3.5-1.6,3.5-3.5
				v-28C227.9,393.9,226.3,392.3,224.4,392.3z M220.9,399.3v21h-4.7v-21H220.9z"/>
			<path style="fill:#33343A;" d="M304.2,392.3h-11.7c-1.9,0-3.5,1.6-3.5,3.5s1.6,3.5,3.5,3.5h8.2v24.5c0,1.9,1.6,3.5,3.5,3.5
				s3.5-1.6,3.5-3.5v-28C307.7,393.9,306.2,392.3,304.2,392.3z"/>
			<path style="fill:#33343A;" d="M278.4,392.3h-11.7c-1.9,0-3.5,1.6-3.5,3.5v28c0,1.9,1.6,3.5,3.5,3.5h11.7c1.9,0,3.5-1.6,3.5-3.5
				v-28C281.9,393.9,280.4,392.3,278.4,392.3z M274.9,399.3v21h-4.7v-21H274.9z"/>
			<path style="fill:#33343A;" d="M196.1,435h-11.7c-1.9,0-3.5,1.6-3.5,3.5s1.6,3.5,3.5,3.5h8.2v24.5c0,1.9,1.6,3.5,3.5,3.5
				s3.5-1.6,3.5-3.5v-28C199.6,436.6,198,435,196.1,435z"/>
			<path style="fill:#33343A;" d="M170.3,435h-11.7c-1.9,0-3.5,1.6-3.5,3.5v28c0,1.9,1.6,3.5,3.5,3.5h11.7c1.9,0,3.5-1.6,3.5-3.5
				v-28C173.8,436.6,172.2,435,170.3,435z M166.8,442v21h-4.7v-21H166.8z"/>
			<path style="fill:#33343A;" d="M250.1,435h-11.7c-1.9,0-3.5,1.6-3.5,3.5s1.6,3.5,3.5,3.5h8.2v24.5c0,1.9,1.6,3.5,3.5,3.5
				s3.5-1.6,3.5-3.5v-28C253.6,436.6,252.1,435,250.1,435z"/>
			<path style="fill:#33343A;" d="M224.4,435h-11.7c-1.9,0-3.5,1.6-3.5,3.5v28c0,1.9,1.6,3.5,3.5,3.5h11.7c1.9,0,3.5-1.6,3.5-3.5
				v-28C227.9,436.6,226.3,435,224.4,435z M220.9,442v21h-4.7v-21H220.9z"/>
			<path style="fill:#33343A;" d="M304.2,435h-11.7c-1.9,0-3.5,1.6-3.5,3.5s1.6,3.5,3.5,3.5h8.2v24.5c0,1.9,1.6,3.5,3.5,3.5
				s3.5-1.6,3.5-3.5v-28C307.7,436.6,306.2,435,304.2,435z"/>
			<path style="fill:#33343A;" d="M278.4,435h-11.7c-1.9,0-3.5,1.6-3.5,3.5v28c0,1.9,1.6,3.5,3.5,3.5h11.7c1.9,0,3.5-1.6,3.5-3.5
				v-28C281.9,436.6,280.4,435,278.4,435z M274.9,442v21h-4.7v-21H274.9z"/>
			<path style="fill:#33343A;" d="M196.1,477.7h-11.7c-1.9,0-3.5,1.6-3.5,3.5s1.6,3.5,3.5,3.5h8.2v24.5c0,1.9,1.6,3.5,3.5,3.5
				s3.5-1.6,3.5-3.5v-28C199.6,479.2,198,477.7,196.1,477.7z"/>
			<path style="fill:#33343A;" d="M170.3,477.7h-11.7c-1.9,0-3.5,1.6-3.5,3.5v28c0,1.9,1.6,3.5,3.5,3.5h11.7c1.9,0,3.5-1.6,3.5-3.5
				v-28C173.8,479.2,172.2,477.7,170.3,477.7z M166.8,484.7v21h-4.7v-21H166.8z"/>
			<path style="fill:#33343A;" d="M250.1,477.7h-11.7c-1.9,0-3.5,1.6-3.5,3.5s1.6,3.5,3.5,3.5h8.2v24.5c0,1.9,1.6,3.5,3.5,3.5
				s3.5-1.6,3.5-3.5v-28C253.6,479.2,252.1,477.7,250.1,477.7z"/>
			<path style="fill:#33343A;" d="M224.4,477.7h-11.7c-1.9,0-3.5,1.6-3.5,3.5v28c0,1.9,1.6,3.5,3.5,3.5h11.7c1.9,0,3.5-1.6,3.5-3.5
				v-28C227.9,479.2,226.3,477.7,224.4,477.7z M220.9,484.7v21h-4.7v-21H220.9z"/>
			<path style="fill:#33343A;" d="M304.2,477.7h-11.7c-1.9,0-3.5,1.6-3.5,3.5s1.6,3.5,3.5,3.5h8.2v24.5c0,1.9,1.6,3.5,3.5,3.5
				s3.5-1.6,3.5-3.5v-28C307.7,479.2,306.2,477.7,304.2,477.7z"/>
			<path style="fill:#33343A;" d="M278.4,477.7h-11.7c-1.9,0-3.5,1.6-3.5,3.5v28c0,1.9,1.6,3.5,3.5,3.5h11.7c1.9,0,3.5-1.6,3.5-3.5
				v-28C281.9,479.2,280.4,477.7,278.4,477.7z M274.9,484.7v21h-4.7v-21H274.9z"/>
			<path style="fill:#33343A;" d="M196.1,520.3h-11.7c-1.9,0-3.5,1.6-3.5,3.5s1.6,3.5,3.5,3.5h8.2v24.5c0,1.9,1.6,3.5,3.5,3.5
				s3.5-1.6,3.5-3.5v-28C199.6,521.9,198,520.3,196.1,520.3z"/>
			<path style="fill:#33343A;" d="M170.3,520.3h-11.7c-1.9,0-3.5,1.6-3.5,3.5v28c0,1.9,1.6,3.5,3.5,3.5h11.7c1.9,0,3.5-1.6,3.5-3.5
				v-28C173.8,521.9,172.2,520.3,170.3,520.3z M166.8,527.3v21h-4.7v-21H166.8z"/>
			<path style="fill:#33343A;" d="M250.1,520.3h-11.7c-1.9,0-3.5,1.6-3.5,3.5s1.6,3.5,3.5,3.5h8.2v24.5c0,1.9,1.6,3.5,3.5,3.5
				s3.5-1.6,3.5-3.5v-28C253.6,521.9,252.1,520.3,250.1,520.3z"/>
			<path style="fill:#33343A;" d="M224.4,520.3h-11.7c-1.9,0-3.5,1.6-3.5,3.5v28c0,1.9,1.6,3.5,3.5,3.5h11.7c1.9,0,3.5-1.6,3.5-3.5
				v-28C227.9,521.9,226.3,520.3,224.4,520.3z M220.9,527.3v21h-4.7v-21H220.9z"/>
			<path style="fill:#33343A;" d="M304.2,520.3h-11.7c-1.9,0-3.5,1.6-3.5,3.5s1.6,3.5,3.5,3.5h8.2v24.5c0,1.9,1.6,3.5,3.5,3.5
				s3.5-1.6,3.5-3.5v-28C307.7,521.9,306.2,520.3,304.2,520.3z"/>
			<path style="fill:#33343A;" d="M278.4,520.3h-11.7c-1.9,0-3.5,1.6-3.5,3.5v28c0,1.9,1.6,3.5,3.5,3.5h11.7c1.9,0,3.5-1.6,3.5-3.5
				v-28C281.9,521.9,280.4,520.3,278.4,520.3z M274.9,527.3v21h-4.7v-21H274.9z"/>
		</g>
		<g>
			<g>
				<path style="fill:#FFFFFF;" d="M215.9,546c19.7-19.7,19.7-51.6,0-71.3c-19.7-19.7-51.6-19.7-71.3,0
					c-17.5,17.5-19.4,44.7-5.8,64.3l-49.7,49.7c-3.5,3.5-3.5,9.2,0,12.7h0c3.5,3.5,9.2,3.5,12.7,0l49.7-49.7
					C171.2,565.5,198.4,563.5,215.9,546z"/>
				<path style="fill:#33343A;" d="M95.5,607.7c-3.2,0-6.4-1.2-8.8-3.7c-4.9-4.9-4.9-12.8,0-17.7l47.7-47.7
					c-13-21.1-10-48.6,7.8-66.3c10.2-10.2,23.7-15.8,38.1-15.8c14.4,0,27.9,5.6,38.1,15.8c21,21,21,55.2,0,76.2
					c-17.8,17.8-45.2,20.8-66.3,7.8L104.3,604C101.9,606.5,98.7,607.7,95.5,607.7z M180.3,463.5c-12.5,0-24.3,4.9-33.2,13.7
					c-16.1,16.1-18.3,41.2-5.4,59.9c1,1.4,0.8,3.3-0.4,4.5l-49.7,49.7c-2.1,2.1-2.1,5.6,0,7.8s5.6,2.1,7.8,0l49.7-49.7
					c1.2-1.2,3.1-1.4,4.5-0.4c18.6,12.9,43.8,10.7,59.9-5.4c18.3-18.3,18.3-48,0-66.3C204.6,468.4,192.8,463.5,180.3,463.5z"/>
			</g>
			<g>
				<path style="fill:#33343A;" d="M207.9,482.7c-15.3-15.3-40.1-15.3-55.3,0c-3.1,3.1-5.6,6.6-7.4,10.3c0,0,0,0,0,0.1
					c-7.2,14.6-4.7,32.8,7.4,44.9c7.6,7.6,17.7,11.4,27.7,11.4c10,0,20-3.8,27.7-11.4C223.2,522.8,223.2,498,207.9,482.7z
					 M203,533.1c-12.5,12.5-32.9,12.5-45.4,0c-9.5-9.5-11.8-23.5-6.9-35.1H182c1.9,0,3.5-1.6,3.5-3.5S184,491,182,491h-27.4
					c0.9-1.2,1.8-2.3,2.9-3.3c6.1-6.1,14.1-9.4,22.7-9.4c8.6,0,16.7,3.3,22.7,9.4C215.5,500.2,215.5,520.6,203,533.1z"/>
				<path style="fill:#33343A;" d="M204.7,502.2h-29.1c-1.9,0-3.5,1.6-3.5,3.5s1.6,3.5,3.5,3.5h29.1c1.9,0,3.5-1.6,3.5-3.5
					S206.6,502.2,204.7,502.2z"/>
			</g>
		</g>
	</g>
	<g>
		<path style="fill:#33343A;" d="M851.7,424.9h-43.9c-1.9,0-3.5-1.6-3.5-3.5v-14.6c0-1.9,1.6-3.5,3.5-3.5h43.9
			c1.9,0,3.5,1.6,3.5,3.5v14.6C855.2,423.3,853.6,424.9,851.7,424.9z M811.3,417.9h36.9v-7.6h-36.9V417.9z"/>
		<polygon style="fill:#FFFFFF;" points="821.3,421.4 812.4,406.8 774.5,406.8 774.5,421.4 774.5,520.4 904,520.4 904,421.4 		"/>
		<path style="fill:#33343A;" d="M904,523.9H774.5c-1.9,0-3.5-1.6-3.5-3.5V406.8c0-1.9,1.6-3.5,3.5-3.5h37.9c1.2,0,2.3,0.6,3,1.7
			l7.9,12.9H904c1.9,0,3.5,1.6,3.5,3.5v99C907.5,522.3,906,523.9,904,523.9z M778,516.9h122.5v-92h-79.2c-1.2,0-2.3-0.6-3-1.7
			l-7.9-12.9H778V516.9z"/>
		<polygon style="fill:#FFFFFF;" points="859.4,502.8 859.4,559.2 880.4,559.2 880.4,502.8 893,502.8 869.9,479.7 846.8,502.8 		"/>
		<path style="fill:#33343A;" d="M880.4,562.7h-21c-1.9,0-3.5-1.6-3.5-3.5v-52.9h-9.1c-1.4,0-2.7-0.9-3.2-2.2
			c-0.5-1.3-0.2-2.8,0.8-3.8l23.1-23.1c1.4-1.4,3.6-1.4,4.9,0l23.1,23.1c1,1,1.3,2.5,0.8,3.8c-0.5,1.3-1.8,2.2-3.2,2.2h-9.1v52.9
			C883.9,561.1,882.3,562.7,880.4,562.7z M862.9,555.7h14v-52.9c0-1.9,1.6-3.5,3.5-3.5h4.1l-14.6-14.6l-14.6,14.6h4.1
			c1.9,0,3.5,1.6,3.5,3.5V555.7z"/>
		<polygon style="fill:#FFFFFF;" points="846.1,570.1 846.1,513.7 825.1,513.7 825.1,570.1 812.5,570.1 835.6,593.2 858.7,570.1 		
			"/>
		<path style="fill:#33343A;" d="M835.6,596.7c-0.9,0-1.8-0.4-2.5-1l-23.1-23.1c-1-1-1.3-2.5-0.8-3.8c0.5-1.3,1.8-2.2,3.2-2.2h9.1
			v-52.9c0-1.9,1.6-3.5,3.5-3.5h21c1.9,0,3.5,1.6,3.5,3.5v52.9h9.1c1.4,0,2.7,0.9,3.2,2.2c0.5,1.3,0.2,2.8-0.8,3.8l-23.1,23.1
			C837.4,596.3,836.6,596.7,835.6,596.7z M821,573.6l14.6,14.6l14.6-14.6h-4.1c-1.9,0-3.5-1.6-3.5-3.5v-52.9h-14v52.9
			c0,1.9-1.6,3.5-3.5,3.5H821z"/>
	</g>
	<g>
		<path style="fill:#33343A;" d="M583.9,229.5V128.1c0-1.9-1.6-3.5-3.5-3.5H419.6c-1.9,0-3.5,1.6-3.5,3.5v101.4
			c0,1.9,1.6,3.5,3.5,3.5h160.8C582.4,233,583.9,231.4,583.9,229.5z M576.9,226H423.1v-94.4h153.8V226z"/>
		<path style="fill:#33343A;" d="M598.9,238.3h-3.1V115.9c0-1.9-1.6-3.5-3.5-3.5H407.7c-1.9,0-3.5,1.6-3.5,3.5v122.4h-3.1
			c-1.9,0-3.5,1.6-3.5,3.5v7.5c0,9.6,7.8,17.4,17.4,17.4H585c9.6,0,17.4-7.8,17.4-17.4v-7.5C602.4,239.8,600.8,238.3,598.9,238.3z
			 M411.2,119.4h177.5v118.9h-54.5h-65h-58V119.4z M530,245.3c-1.3,2.7-4,4.5-7.2,4.5h-42c-3.2,0-5.9-1.8-7.2-4.5H530z M595.4,249.3
			c0,5.8-4.7,10.4-10.4,10.4H415c-5.8,0-10.4-4.7-10.4-10.4v-4h3.1h58.5c1.6,6.6,7.5,11.5,14.6,11.5h42c7.1,0,13-4.9,14.6-11.5h54.9
			h3.1V249.3z"/>
		<path style="fill:#33343A;" d="M460.9,153h6.2v19.7c0,1.9,1.6,3.5,3.5,3.5s3.5-1.6,3.5-3.5v-23.2c0-1.9-1.6-3.5-3.5-3.5h-9.7
			c-1.9,0-3.5,1.6-3.5,3.5S459,153,460.9,153z"/>
		<path style="fill:#33343A;" d="M439.5,176.2h9.7c1.9,0,3.5-1.6,3.5-3.5v-23.2c0-1.9-1.6-3.5-3.5-3.5h-9.7c-1.9,0-3.5,1.6-3.5,3.5
			v23.2C436,174.7,437.6,176.2,439.5,176.2z M443,169.2V153h2.7v16.2H443z"/>
		<path style="fill:#33343A;" d="M505.8,153h6.2v19.7c0,1.9,1.6,3.5,3.5,3.5s3.5-1.6,3.5-3.5v-23.2c0-1.9-1.6-3.5-3.5-3.5h-9.7
			c-1.9,0-3.5,1.6-3.5,3.5S503.9,153,505.8,153z"/>
		<path style="fill:#33343A;" d="M484.4,176.2h9.7c1.9,0,3.5-1.6,3.5-3.5v-23.2c0-1.9-1.6-3.5-3.5-3.5h-9.7c-1.9,0-3.5,1.6-3.5,3.5
			v23.2C480.9,174.7,482.5,176.2,484.4,176.2z M487.9,169.2V153h2.7v16.2H487.9z"/>
		<path style="fill:#33343A;" d="M550.7,153h6.2v19.7c0,1.9,1.6,3.5,3.5,3.5s3.5-1.6,3.5-3.5v-23.2c0-1.9-1.6-3.5-3.5-3.5h-9.7
			c-1.9,0-3.5,1.6-3.5,3.5S548.8,153,550.7,153z"/>
		<path style="fill:#33343A;" d="M529.3,176.2h9.7c1.9,0,3.5-1.6,3.5-3.5v-23.2c0-1.9-1.6-3.5-3.5-3.5h-9.7c-1.9,0-3.5,1.6-3.5,3.5
			v23.2C525.8,174.7,527.4,176.2,529.3,176.2z M532.8,169.2V153h2.7v16.2H532.8z"/>
		<path style="fill:#33343A;" d="M460.9,188.4h6.2v19.7c0,1.9,1.6,3.5,3.5,3.5s3.5-1.6,3.5-3.5v-23.2c0-1.9-1.6-3.5-3.5-3.5h-9.7
			c-1.9,0-3.5,1.6-3.5,3.5S459,188.4,460.9,188.4z"/>
		<path style="fill:#33343A;" d="M439.5,211.6h9.7c1.9,0,3.5-1.6,3.5-3.5v-23.2c0-1.9-1.6-3.5-3.5-3.5h-9.7c-1.9,0-3.5,1.6-3.5,3.5
			v23.2C436,210.1,437.6,211.6,439.5,211.6z M443,204.6v-16.2h2.7v16.2H443z"/>
		<path style="fill:#33343A;" d="M505.8,188.4h6.2v19.7c0,1.9,1.6,3.5,3.5,3.5s3.5-1.6,3.5-3.5v-23.2c0-1.9-1.6-3.5-3.5-3.5h-9.7
			c-1.9,0-3.5,1.6-3.5,3.5S503.9,188.4,505.8,188.4z"/>
		<path style="fill:#33343A;" d="M484.4,211.6h9.7c1.9,0,3.5-1.6,3.5-3.5v-23.2c0-1.9-1.6-3.5-3.5-3.5h-9.7c-1.9,0-3.5,1.6-3.5,3.5
			v23.2C480.9,210.1,482.5,211.6,484.4,211.6z M487.9,204.6v-16.2h2.7v16.2H487.9z"/>
		<path style="fill:#33343A;" d="M550.7,188.4h6.2v19.7c0,1.9,1.6,3.5,3.5,3.5s3.5-1.6,3.5-3.5v-23.2c0-1.9-1.6-3.5-3.5-3.5h-9.7
			c-1.9,0-3.5,1.6-3.5,3.5S548.8,188.4,550.7,188.4z"/>
		<path style="fill:#33343A;" d="M529.3,211.6h9.7c1.9,0,3.5-1.6,3.5-3.5v-23.2c0-1.9-1.6-3.5-3.5-3.5h-9.7c-1.9,0-3.5,1.6-3.5,3.5
			v23.2C525.8,210.1,527.4,211.6,529.3,211.6z M532.8,204.6v-16.2h2.7v16.2H532.8z"/>
	</g>
	<g>
		<path style="fill:#33343A;" d="M884.7,238.9h-90.8c-15.7,0-28.5-12.8-28.5-28.5s12.8-28.5,28.5-28.5h3.3
			c0.1-23.1,19-41.9,42.1-41.9s42,18.8,42.1,41.9h3.3c15.7,0,28.5,12.8,28.5,28.5S900.4,238.9,884.7,238.9z M793.9,189
			c-11.8,0-21.5,9.6-21.5,21.5s9.6,21.5,21.5,21.5h90.8c11.8,0,21.5-9.6,21.5-21.5s-9.6-21.5-21.5-21.5h-7c-1,0-1.9-0.4-2.6-1.1
			c-0.7-0.7-1-1.7-0.9-2.7c0.1-1.1,0.1-2.1,0.1-3c0-19.4-15.7-35.1-35.1-35.1s-35.1,15.7-35.1,35.1c0,0.9,0,1.9,0.1,3
			c0.1,1-0.2,1.9-0.9,2.7c-0.7,0.7-1.6,1.1-2.6,1.1H793.9z"/>
	</g>
	<g>
		<g>
			<path style="fill:#FFFFFF;" d="M896.6,203.5c19.7-19.7,19.7-51.6,0-71.3c-19.7-19.7-51.6-19.7-71.3,0
				c-17.5,17.5-19.4,44.7-5.8,64.3l-49.7,49.7c-3.5,3.5-3.5,9.2,0,12.7l0,0c3.5,3.5,9.2,3.5,12.7,0l49.7-49.7
				C851.9,222.9,879.1,221,896.6,203.5z"/>
			<path style="fill:#33343A;" d="M776.2,265.1c-3.2,0-6.4-1.2-8.8-3.7c-4.9-4.9-4.9-12.8,0-17.7l47.7-47.7
				c-13-21.1-10-48.6,7.8-66.3c21-21,55.2-21,76.2,0c21,21,21,55.2,0,76.2l0,0c-17.8,17.8-45.2,20.8-66.3,7.8L785,261.4
				C782.6,263.9,779.4,265.1,776.2,265.1z M861,121c-12,0-24,4.6-33.2,13.7c-16.1,16.1-18.3,41.2-5.4,59.9c1,1.4,0.8,3.3-0.4,4.5
				l-49.7,49.7c-2.1,2.1-2.1,5.6,0,7.8c2.1,2.1,5.6,2.1,7.8,0l49.7-49.7c1.2-1.2,3.1-1.4,4.5-0.4c18.6,12.9,43.8,10.7,59.9-5.4
				c18.3-18.3,18.3-48,0-66.3C885,125.5,873,121,861,121z M896.6,203.5L896.6,203.5L896.6,203.5z"/>
		</g>
		<g>
			<path style="fill:#33343A;" d="M861,206.9c-10,0-20-3.8-27.7-11.4c-7.4-7.4-11.5-17.2-11.5-27.7c0-10.5,4.1-20.3,11.5-27.7
				c15.3-15.3,40.1-15.3,55.3,0c7.4,7.4,11.5,17.2,11.5,27.7c0,10.5-4.1,20.3-11.5,27.7l0,0l0,0C881,203.1,871,206.9,861,206.9z
				 M861,135.7c-8.2,0-16.5,3.1-22.7,9.4c-6.1,6.1-9.4,14.1-9.4,22.7c0,8.6,3.3,16.7,9.4,22.7c6.1,6.1,14.1,9.4,22.7,9.4
				c8.6,0,16.7-3.3,22.7-9.4l0,0c6.1-6.1,9.4-14.1,9.4-22.7c0-8.6-3.3-16.7-9.4-22.7C877.4,138.8,869.2,135.7,861,135.7z"/>
		</g>
		<g>
			<path style="fill:#33343A;" d="M862.7,155.4h-33.7c-1.9,0-3.5-1.6-3.5-3.5s1.6-3.5,3.5-3.5h33.7c1.9,0,3.5,1.6,3.5,3.5
				S864.7,155.4,862.7,155.4z"/>
		</g>
		<g>
			<path style="fill:#33343A;" d="M885.4,166.7h-29.1c-1.9,0-3.5-1.6-3.5-3.5s1.6-3.5,3.5-3.5h29.1c1.9,0,3.5,1.6,3.5,3.5
				S887.3,166.7,885.4,166.7z"/>
		</g>
	</g>
	<g>
		<path style="fill:#33343A;" d="M240.8,845.5h-90.8c-15.7,0-28.5-12.8-28.5-28.5s12.8-28.5,28.5-28.5h3.3
			c0.1-23.1,19-41.9,42.1-41.9c23.1,0,42,18.8,42.1,41.9h3.3c15.7,0,28.5,12.8,28.5,28.5S256.5,845.5,240.8,845.5z M149.9,795.6
			c-11.8,0-21.5,9.6-21.5,21.5c0,11.8,9.6,21.5,21.5,21.5h90.8c11.8,0,21.5-9.6,21.5-21.5c0-11.8-9.6-21.5-21.5-21.5h-7
			c-1,0-1.9-0.4-2.6-1.1c-0.7-0.7-1-1.7-0.9-2.7c0.1-1.1,0.1-2.1,0.1-3c0-19.4-15.7-35.1-35.1-35.1c-19.4,0-35.1,15.7-35.1,35.1
			c0,0.9,0,1.9,0.1,3c0.1,1-0.2,1.9-0.9,2.7c-0.7,0.7-1.6,1.1-2.6,1.1H149.9z"/>
	</g>
	<g>
		<polygon style="fill:#FFFFFF;" points="205.9,812.8 205.9,756.4 184.9,756.4 184.9,812.8 172.3,812.8 195.4,835.9 218.4,812.8 		
			"/>
		<path style="fill:#33343A;" d="M195.4,839.4c-0.9,0-1.8-0.3-2.5-1l-23.1-23.1c-1-1-1.3-2.5-0.8-3.8c0.5-1.3,1.8-2.2,3.2-2.2h9.1
			v-52.9c0-1.9,1.6-3.5,3.5-3.5h21c1.9,0,3.5,1.6,3.5,3.5v52.9h9.1c1.4,0,2.7,0.9,3.2,2.2c0.5,1.3,0.2,2.8-0.8,3.8l-23.1,23.1
			C197.1,839.1,196.2,839.4,195.4,839.4z M180.7,816.3l14.6,14.6l14.6-14.6h-4.1c-1.9,0-3.5-1.6-3.5-3.5v-52.9h-14v52.9
			c0,1.9-1.6,3.5-3.5,3.5H180.7z"/>
	</g>
	<g>
		<g>
			<path style="fill:#33343A;" d="M805.4,704.6h-11.7c-1.9,0-3.5,1.6-3.5,3.5s1.6,3.5,3.5,3.5h8.2v24.5c0,1.9,1.6,3.5,3.5,3.5
				s3.5-1.6,3.5-3.5v-28C808.9,706.2,807.3,704.6,805.4,704.6z"/>
			<path style="fill:#33343A;" d="M779.6,704.6h-11.7c-1.9,0-3.5,1.6-3.5,3.5v28c0,1.9,1.6,3.5,3.5,3.5h11.7c1.9,0,3.5-1.6,3.5-3.5
				v-28C783.1,706.2,781.5,704.6,779.6,704.6z M776.1,711.6v21h-4.7v-21H776.1z"/>
			<path style="fill:#33343A;" d="M859.4,704.6h-11.7c-1.9,0-3.5,1.6-3.5,3.5s1.6,3.5,3.5,3.5h8.2v24.5c0,1.9,1.6,3.5,3.5,3.5
				s3.5-1.6,3.5-3.5v-28C862.9,706.2,861.4,704.6,859.4,704.6z"/>
			<path style="fill:#33343A;" d="M833.7,704.6h-11.7c-1.9,0-3.5,1.6-3.5,3.5v28c0,1.9,1.6,3.5,3.5,3.5h11.7c1.9,0,3.5-1.6,3.5-3.5
				v-28C837.2,706.2,835.6,704.6,833.7,704.6z M830.2,711.6v21h-4.7v-21H830.2z"/>
			<path style="fill:#33343A;" d="M913.5,704.6h-11.7c-1.9,0-3.5,1.6-3.5,3.5s1.6,3.5,3.5,3.5h8.2v24.5c0,1.9,1.6,3.5,3.5,3.5
				s3.5-1.6,3.5-3.5v-28C917,706.2,915.4,704.6,913.5,704.6z"/>
			<path style="fill:#33343A;" d="M887.7,704.6H876c-1.9,0-3.5,1.6-3.5,3.5v28c0,1.9,1.6,3.5,3.5,3.5h11.7c1.9,0,3.5-1.6,3.5-3.5
				v-28C891.2,706.2,889.7,704.6,887.7,704.6z M884.2,711.6v21h-4.7v-21H884.2z"/>
			<path style="fill:#33343A;" d="M805.4,747.3h-11.7c-1.9,0-3.5,1.6-3.5,3.5s1.6,3.5,3.5,3.5h8.2v24.5c0,1.9,1.6,3.5,3.5,3.5
				s3.5-1.6,3.5-3.5v-28C808.9,748.9,807.3,747.3,805.4,747.3z"/>
			<path style="fill:#33343A;" d="M779.6,747.3h-11.7c-1.9,0-3.5,1.6-3.5,3.5v28c0,1.9,1.6,3.5,3.5,3.5h11.7c1.9,0,3.5-1.6,3.5-3.5
				v-28C783.1,748.9,781.5,747.3,779.6,747.3z M776.1,754.3v21h-4.7v-21H776.1z"/>
			<path style="fill:#33343A;" d="M859.4,747.3h-11.7c-1.9,0-3.5,1.6-3.5,3.5s1.6,3.5,3.5,3.5h8.2v24.5c0,1.9,1.6,3.5,3.5,3.5
				s3.5-1.6,3.5-3.5v-28C862.9,748.9,861.4,747.3,859.4,747.3z"/>
			<path style="fill:#33343A;" d="M833.7,747.3h-11.7c-1.9,0-3.5,1.6-3.5,3.5v28c0,1.9,1.6,3.5,3.5,3.5h11.7c1.9,0,3.5-1.6,3.5-3.5
				v-28C837.2,748.9,835.6,747.3,833.7,747.3z M830.2,754.3v21h-4.7v-21H830.2z"/>
			<path style="fill:#33343A;" d="M913.5,747.3h-11.7c-1.9,0-3.5,1.6-3.5,3.5s1.6,3.5,3.5,3.5h8.2v24.5c0,1.9,1.6,3.5,3.5,3.5
				s3.5-1.6,3.5-3.5v-28C917,748.9,915.4,747.3,913.5,747.3z"/>
			<path style="fill:#33343A;" d="M887.7,747.3H876c-1.9,0-3.5,1.6-3.5,3.5v28c0,1.9,1.6,3.5,3.5,3.5h11.7c1.9,0,3.5-1.6,3.5-3.5
				v-28C891.2,748.9,889.7,747.3,887.7,747.3z M884.2,754.3v21h-4.7v-21H884.2z"/>
			<path style="fill:#33343A;" d="M805.4,810h-11.7c-1.9,0-3.5,1.6-3.5,3.5s1.6,3.5,3.5,3.5h8.2v24.5c0,1.9,1.6,3.5,3.5,3.5
				s3.5-1.6,3.5-3.5v-28C808.9,811.5,807.3,810,805.4,810z"/>
			<path style="fill:#33343A;" d="M779.6,810h-11.7c-1.9,0-3.5,1.6-3.5,3.5v28c0,1.9,1.6,3.5,3.5,3.5h11.7c1.9,0,3.5-1.6,3.5-3.5
				v-28C783.1,811.5,781.5,810,779.6,810z M776.1,817v21h-4.7v-21H776.1z"/>
			<path style="fill:#33343A;" d="M859.4,810h-11.7c-1.9,0-3.5,1.6-3.5,3.5s1.6,3.5,3.5,3.5h8.2v24.5c0,1.9,1.6,3.5,3.5,3.5
				s3.5-1.6,3.5-3.5v-28C862.9,811.5,861.4,810,859.4,810z"/>
			<path style="fill:#33343A;" d="M833.7,810h-11.7c-1.9,0-3.5,1.6-3.5,3.5v28c0,1.9,1.6,3.5,3.5,3.5h11.7c1.9,0,3.5-1.6,3.5-3.5
				v-28C837.2,811.5,835.6,810,833.7,810z M830.2,817v21h-4.7v-21H830.2z"/>
			<path style="fill:#33343A;" d="M913.5,810h-11.7c-1.9,0-3.5,1.6-3.5,3.5s1.6,3.5,3.5,3.5h8.2v24.5c0,1.9,1.6,3.5,3.5,3.5
				s3.5-1.6,3.5-3.5v-28C917,811.5,915.4,810,913.5,810z"/>
			<path style="fill:#33343A;" d="M887.7,810H876c-1.9,0-3.5,1.6-3.5,3.5v28c0,1.9,1.6,3.5,3.5,3.5h11.7c1.9,0,3.5-1.6,3.5-3.5v-28
				C891.2,811.5,889.7,810,887.7,810z M884.2,817v21h-4.7v-21H884.2z"/>
			<path style="fill:#33343A;" d="M805.4,852.6h-11.7c-1.9,0-3.5,1.6-3.5,3.5s1.6,3.5,3.5,3.5h8.2v24.5c0,1.9,1.6,3.5,3.5,3.5
				s3.5-1.6,3.5-3.5v-28C808.9,854.2,807.3,852.6,805.4,852.6z"/>
			<path style="fill:#33343A;" d="M779.6,852.6h-11.7c-1.9,0-3.5,1.6-3.5,3.5v28c0,1.9,1.6,3.5,3.5,3.5h11.7c1.9,0,3.5-1.6,3.5-3.5
				v-28C783.1,854.2,781.5,852.6,779.6,852.6z M776.1,859.6v21h-4.7v-21H776.1z"/>
			<path style="fill:#33343A;" d="M859.4,852.6h-11.7c-1.9,0-3.5,1.6-3.5,3.5s1.6,3.5,3.5,3.5h8.2v24.5c0,1.9,1.6,3.5,3.5,3.5
				s3.5-1.6,3.5-3.5v-28C862.9,854.2,861.4,852.6,859.4,852.6z"/>
			<path style="fill:#33343A;" d="M833.7,852.6h-11.7c-1.9,0-3.5,1.6-3.5,3.5v28c0,1.9,1.6,3.5,3.5,3.5h11.7c1.9,0,3.5-1.6,3.5-3.5
				v-28C837.2,854.2,835.6,852.6,833.7,852.6z M830.2,859.6v21h-4.7v-21H830.2z"/>
			<path style="fill:#33343A;" d="M913.5,852.6h-11.7c-1.9,0-3.5,1.6-3.5,3.5s1.6,3.5,3.5,3.5h8.2v24.5c0,1.9,1.6,3.5,3.5,3.5
				s3.5-1.6,3.5-3.5v-28C917,854.2,915.4,852.6,913.5,852.6z"/>
			<path style="fill:#33343A;" d="M887.7,852.6H876c-1.9,0-3.5,1.6-3.5,3.5v28c0,1.9,1.6,3.5,3.5,3.5h11.7c1.9,0,3.5-1.6,3.5-3.5
				v-28C891.2,854.2,889.7,852.6,887.7,852.6z M884.2,859.6v21h-4.7v-21H884.2z"/>
		</g>
		<g>
			<path style="fill:#33343A;" d="M913.5,799.6H765c-1.9,0-3.5-1.6-3.5-3.5s1.6-3.5,3.5-3.5h148.5c1.9,0,3.5,1.6,3.5,3.5
				S915.4,799.6,913.5,799.6z"/>
		</g>
		<g>
			<circle style="fill:#FFFFFF;" cx="782" cy="796.1" r="6.3"/>
			<path style="fill:#33343A;" d="M782,806c-5.4,0-9.8-4.4-9.8-9.8s4.4-9.8,9.8-9.8c5.4,0,9.8,4.4,9.8,9.8S787.4,806,782,806z
				 M782,793.3c-1.6,0-2.8,1.3-2.8,2.8s1.3,2.8,2.8,2.8s2.8-1.3,2.8-2.8S783.6,793.3,782,793.3z"/>
		</g>
		<g>
			<circle style="fill:#FFFFFF;" cx="821.9" cy="796.1" r="6.3"/>
			<path style="fill:#33343A;" d="M821.9,806c-5.4,0-9.8-4.4-9.8-9.8s4.4-9.8,9.8-9.8c5.4,0,9.8,4.4,9.8,9.8S827.4,806,821.9,806z
				 M821.9,793.3c-1.6,0-2.8,1.3-2.8,2.8s1.3,2.8,2.8,2.8s2.8-1.3,2.8-2.8S823.5,793.3,821.9,793.3z"/>
		</g>
		<g>
			<circle style="fill:#FFFFFF;" cx="893.4" cy="796.1" r="6.3"/>
			<path style="fill:#33343A;" d="M893.4,806c-5.4,0-9.8-4.4-9.8-9.8s4.4-9.8,9.8-9.8c5.4,0,9.8,4.4,9.8,9.8S898.9,806,893.4,806z
				 M893.4,793.3c-1.6,0-2.8,1.3-2.8,2.8s1.3,2.8,2.8,2.8s2.8-1.3,2.8-2.8S895,793.3,893.4,793.3z"/>
		</g>
	</g>
	<g>
		<path style="fill:#33343A;" d="M180.6,189.5c0,8.2,6.6,14.8,14.8,14.8c8.2,0,14.8-6.6,14.8-14.8c0-8.2-6.6-14.8-14.8-14.8
			C187.2,174.7,180.6,181.4,180.6,189.5z M195.4,181.7c4.3,0,7.8,3.5,7.8,7.8c0,4.3-3.5,7.8-7.8,7.8c-4.3,0-7.8-3.5-7.8-7.8
			C187.6,185.2,191.1,181.7,195.4,181.7z"/>
		<path style="fill:#33343A;" d="M184,156.7v5.4l-3.8-3.8c-1.4-1.4-3.6-1.4-4.9,0l-11.1,11.1c-1.4,1.4-1.4,3.6,0,5l3.8,3.8h-5.4
			c-1.9,0-3.5,1.6-3.5,3.5v15.7c0,1.9,1.6,3.5,3.5,3.5h5.4l-3.8,3.8c-1.4,1.4-1.4,3.6,0,5l11.1,11.1c1.4,1.4,3.6,1.4,4.9,0l3.8-3.8
			v5.4c0,1.9,1.6,3.5,3.5,3.5h15.7c1.9,0,3.5-1.6,3.5-3.5V217l3.8,3.8c1.4,1.4,3.6,1.4,4.9,0l11.1-11.1c0.7-0.7,1-1.5,1-2.5
			s-0.4-1.8-1-2.5l-3.8-3.8h5.4c1.9,0,3.5-1.6,3.5-3.5v-15.7c0-1.9-1.6-3.5-3.5-3.5h-5.4l3.8-3.8c0.7-0.7,1-1.5,1-2.5
			s-0.4-1.8-1-2.5l-11.1-11.1c-1.4-1.4-3.6-1.4-4.9,0l-3.8,3.8v-5.4c0-1.9-1.6-3.5-3.5-3.5h-15.7C185.6,153.2,184,154.7,184,156.7z
			 M191,166.2v-6h8.7v6c0,1.5,1,2.8,2.4,3.3c0.9,0.3,1.8,0.7,2.6,1.1c1.3,0.7,3,0.4,4-0.7l4.3-4.3l6.2,6.2l-4.3,4.3
			c-1.1,1.1-1.3,2.7-0.7,4c0.4,0.8,0.8,1.7,1.1,2.6c0.5,1.4,1.8,2.4,3.3,2.4h6v8.7h-6c-1.5,0-2.8,1-3.3,2.4
			c-0.3,0.9-0.7,1.8-1.1,2.6c-0.7,1.3-0.4,3,0.7,4l4.3,4.3l-6.2,6.2l-4.3-4.3c-1.1-1.1-2.7-1.3-4-0.7c-0.8,0.4-1.7,0.8-2.6,1.1
			c-1.4,0.5-2.4,1.8-2.4,3.3v6H191v-6c0-1.5-1-2.8-2.4-3.3c-0.9-0.3-1.8-0.7-2.6-1.1c-1.3-0.7-3-0.4-4,0.7l-4.3,4.3l-6.2-6.2
			l4.3-4.3c1.1-1.1,1.3-2.7,0.7-4c-0.4-0.8-0.8-1.7-1.1-2.6c-0.5-1.4-1.8-2.4-3.3-2.4h-6v-8.7h6c1.5,0,2.8-1,3.3-2.4
			c0.3-0.9,0.7-1.8,1.1-2.6c0.7-1.3,0.4-3-0.7-4l-4.3-4.3l6.2-6.2l4.3,4.3c1.1,1.1,2.7,1.3,4,0.7c0.8-0.4,1.7-0.8,2.6-1.1
			C190,169,191,167.7,191,166.2z"/>
		<path style="fill:#33343A;" d="M195.4,112.7c-42.4,0-76.8,34.5-76.8,76.8s34.5,76.8,76.8,76.8s76.8-34.5,76.8-76.8
			S237.7,112.7,195.4,112.7z M195.4,259.3c-38.5,0-69.8-31.3-69.8-69.8s31.3-69.8,69.8-69.8s69.8,31.3,69.8,69.8
			S233.9,259.3,195.4,259.3z"/>
		<path style="fill:#33343A;" d="M250.3,186c-1.9,0-3.5,1.6-3.5,3.5c0,28.4-23.1,51.4-51.4,51.4s-51.4-23.1-51.4-51.4
			s23.1-51.4,51.4-51.4c1.9,0,3.5-1.6,3.5-3.5s-1.6-3.5-3.5-3.5c-32.2,0-58.4,26.2-58.4,58.4s26.2,58.4,58.4,58.4
			c32.2,0,58.4-26.2,58.4-58.4C253.8,187.6,252.2,186,250.3,186z"/>
	</g>
	<g>
		<path style="fill:#33343A;" d="M469.4,745c-11.5,0-20.8,9.3-20.8,20.8c0,11.5,9.3,20.8,20.8,20.8s20.8-9.3,20.8-20.8
			C490.2,754.3,480.9,745,469.4,745z M469.4,779.6c-7.6,0-13.8-6.2-13.8-13.8s6.2-13.8,13.8-13.8s13.8,6.2,13.8,13.8
			S477,779.6,469.4,779.6z"/>
		<path style="fill:#33343A;" d="M517.1,792.9c0-0.9-0.4-1.8-1-2.5l-8.6-8.6c0.1-0.2,0.1-0.3,0.2-0.5h12.2c1.9,0,3.5-1.6,3.5-3.5
			v-24.2c0-1.9-1.6-3.5-3.5-3.5h-12.2c-0.1-0.2-0.1-0.3-0.2-0.5l8.6-8.6c1.4-1.4,1.4-3.6,0-4.9L499,719.1c-1.3-1.3-3.6-1.3-4.9,0
			l-8.6,8.6c-0.2-0.1-0.3-0.1-0.5-0.2v-12.2c0-1.9-1.6-3.5-3.5-3.5h-24.2c-1.9,0-3.5,1.6-3.5,3.5v12.2c-0.2,0.1-0.3,0.1-0.5,0.2
			l-8.6-8.6c-0.7-0.7-1.5-1-2.5-1s-1.8,0.4-2.5,1l-17.1,17.1c-1.4,1.4-1.4,3.6,0,4.9l8.6,8.6c-0.1,0.2-0.1,0.3-0.2,0.5h-12.2
			c-1.9,0-3.5,1.6-3.5,3.5v24.2c0,1.9,1.6,3.5,3.5,3.5h12.2c0.1,0.2,0.1,0.3,0.2,0.5l-8.6,8.6c-0.7,0.7-1,1.5-1,2.5s0.4,1.8,1,2.5
			l17.1,17.1c1.4,1.4,3.6,1.4,4.9,0l8.6-8.6c0.2,0.1,0.3,0.1,0.5,0.2v12.2c0,1.9,1.6,3.5,3.5,3.5h24.2c1.9,0,3.5-1.6,3.5-3.5v-12.2
			c0.2-0.1,0.3-0.1,0.5-0.2l8.6,8.6c1.4,1.4,3.6,1.4,4.9,0l17.1-17.1C516.7,794.7,517.1,793.8,517.1,792.9z M496.5,805.1l-7.9-7.9
			c-1.1-1.1-2.7-1.3-4-0.7c-1.4,0.7-2.8,1.3-4.3,1.8c-1.4,0.5-2.4,1.8-2.4,3.3v11.1h-17.2v-11.1c0-1.5-1-2.8-2.4-3.3
			c-1.5-0.5-2.9-1.1-4.3-1.8c-1.3-0.7-3-0.4-4,0.7l-7.9,7.9l-12.1-12.1l7.9-7.9c1.1-1.1,1.3-2.7,0.7-4c-0.7-1.4-1.3-2.8-1.8-4.3
			c-0.5-1.4-1.8-2.4-3.3-2.4h-11.1v-17.2h11.1c1.5,0,2.8-1,3.3-2.4c0.5-1.5,1.1-2.9,1.8-4.3c0.7-1.3,0.4-3-0.7-4l-7.9-7.9l12.1-12.1
			l7.9,7.9c1.1,1.1,2.7,1.3,4,0.7c1.4-0.7,2.8-1.3,4.3-1.8c1.4-0.5,2.4-1.8,2.4-3.3v-11.1H478v11.1c0,1.5,1,2.8,2.4,3.3
			c1.5,0.5,2.9,1.1,4.3,1.8c1.3,0.7,3,0.4,4-0.7l7.9-7.9l12.1,12.1l-7.9,7.9c-1.1,1.1-1.3,2.7-0.7,4c0.7,1.4,1.3,2.8,1.8,4.3
			c0.5,1.4,1.8,2.4,3.3,2.4h11.1v17.2h-11.1c-1.5,0-2.8,1-3.3,2.4c-0.5,1.5-1.1,2.9-1.8,4.3c-0.7,1.3-0.4,3,0.7,4l7.9,7.9
			L496.5,805.1z"/>
		<path style="fill:#33343A;" d="M581.1,817.1h-17.5v-9.3c0-11.7-9.5-21.2-21.2-21.2c-11.7,0-21.2,9.5-21.2,21.2v9.3h-17.5
			c-1.9,0-3.5,1.6-3.5,3.5v56.3c0,1.9,1.6,3.5,3.5,3.5h77.3c1.9,0,3.5-1.6,3.5-3.5v-56.3C584.6,818.7,583,817.1,581.1,817.1z
			 M528.2,807.8c0-7.8,6.4-14.2,14.2-14.2s14.2,6.4,14.2,14.2v9.3h-28.3V807.8z M577.6,873.4h-70.3v-49.3h70.3V873.4z"/>
		<path style="fill:#33343A;" d="M542.4,834.9c-7.7,0-13.9,6.2-13.9,13.9s6.2,13.9,13.9,13.9c7.7,0,13.9-6.2,13.9-13.9
			S550.1,834.9,542.4,834.9z M542.4,855.7c-3.8,0-6.9-3.1-6.9-6.9s3.1-6.9,6.9-6.9c3.8,0,6.9,3.1,6.9,6.9S546.2,855.7,542.4,855.7z"
			/>
	</g>
</g>
</svg>
